<svg width="24" height="24" viewBox="0 0 24 24" fill="none" xmlns="http://www.w3.org/2000/svg">
<g clip-path="url(#clip0_57_51)">
<path d="M17.1747 18.3547V16.1398C17.172 15.9268 17.1892 15.714 17.226 15.5041L17.3286 14.7346L14.0208 18.3547H17.1747Z" fill="#777777"/>
<path d="M20.9241 7.28454e-06H3.08025C2.67606 -0.000872676 2.27566 0.0779791 1.90198 0.232048C1.5283 0.386117 1.18867 0.612378 0.902555 0.897876C0.616435 1.18337 0.389436 1.5225 0.234555 1.89585C0.0796733 2.26919 -4.90427e-05 2.66942 -4.80849e-05 3.07361V20.9175C-0.00122191 21.3219 0.077413 21.7225 0.231351 22.0964C0.385288 22.4704 0.611502 22.8103 0.89703 23.0966C1.18256 23.383 1.52179 23.6102 1.89528 23.7652C2.26877 23.9202 2.66917 24 3.07356 24H20.9174C21.322 24.0012 21.7228 23.9225 22.0969 23.7684C22.471 23.6143 22.811 23.3879 23.0974 23.1021C23.3837 22.8164 23.6109 22.4769 23.7658 22.1031C23.9207 21.7294 24.0002 21.3287 24 20.9242V3.0803C24.0008 2.67592 23.9219 2.27534 23.7677 1.90152C23.6135 1.52769 23.387 1.18797 23.1013 0.90182C22.8156 0.615671 22.4762 0.388719 22.1026 0.233969C21.729 0.0792187 21.3285 -0.000287131 20.9241 7.28454e-06ZM10.9784 6.09815V20.8193C10.9784 20.9791 10.9149 21.1322 10.802 21.2452C10.6891 21.3581 10.5359 21.4216 10.3762 21.4216H7.94047C7.86139 21.4216 7.78307 21.406 7.71001 21.3757C7.63694 21.3455 7.57055 21.3011 7.51463 21.2452C7.45871 21.1893 7.41435 21.1229 7.38408 21.0498C7.35382 20.9767 7.33824 20.8984 7.33824 20.8193V6.09815C7.33824 6.01917 7.32265 5.94096 7.29236 5.86802C7.26206 5.79508 7.21767 5.72884 7.16172 5.67309C7.10577 5.61735 7.03936 5.5732 6.96631 5.54318C6.89325 5.51316 6.81499 5.49785 6.73601 5.49815H2.94419C2.78447 5.49815 2.63129 5.4347 2.51835 5.32176C2.40541 5.20882 2.34196 5.05564 2.34196 4.89592V3.1896C2.34196 3.02988 2.40541 2.8767 2.51835 2.76376C2.63129 2.65082 2.78447 2.58737 2.94419 2.58737H19.9583C20.118 2.58737 20.2712 2.65082 20.3842 2.76376C20.4971 2.8767 20.5605 3.02988 20.5605 3.1896V4.90707C20.5605 5.06679 20.4971 5.21997 20.3842 5.33291C20.2712 5.44585 20.118 5.5093 19.9583 5.5093H11.5806C11.423 5.50869 11.2715 5.57011 11.1588 5.68029C11.0461 5.79048 10.9813 5.94057 10.9784 6.09815ZM21.0736 19.5903H19.3249V21.4126H17.1747V19.5903H12V18.5309L17.1747 13.2223H19.3316V18.3524H21.0802L21.0736 19.5903Z" fill="#777777"/>
</g>
<defs>
<clipPath id="clip0_57_51">
<rect width="24" height="24" fill="white"/>
</clipPath>
</defs>
</svg>
