<svg width="150" height="63" viewBox="0 0 150 63" fill="none" xmlns="http://www.w3.org/2000/svg">
<path fill-rule="evenodd" clip-rule="evenodd" d="M0 15C0 6.71573 6.71573 0 15 0H60C67.353 0 73.4703 5.2907 74.7527 12.2729H135C143.284 12.2729 150 18.9887 150 27.273V47.7275C150 56.0118 143.284 62.7275 135 62.7275H45L44.9184 62.7273H15C6.71573 62.7273 0 56.0115 0 47.7273V15ZM119.584 43.4085C118.259 43.4085 116.975 43.2588 115.73 42.9596C114.502 42.6467 113.512 42.2455 112.762 41.7558L114.079 39.2665C114.797 39.7154 115.65 40.0759 116.64 40.3479C117.629 40.62 118.618 40.756 119.608 40.756C120.709 40.756 121.523 40.62 122.049 40.3479C122.576 40.0623 122.839 39.6882 122.839 39.2257C122.839 38.8857 122.679 38.6068 122.36 38.3892C122.057 38.158 121.658 37.9743 121.164 37.8383C120.685 37.7023 120.031 37.5526 119.201 37.3894C117.924 37.131 116.879 36.8725 116.065 36.6141C115.252 36.3556 114.549 35.9408 113.959 35.3695C113.385 34.7982 113.097 34.0364 113.097 33.0843C113.097 32.2545 113.361 31.5064 113.887 30.8399C114.414 30.1598 115.204 29.6225 116.257 29.228C117.326 28.8335 118.626 28.6363 120.158 28.6363C121.227 28.6363 122.273 28.7451 123.294 28.9628C124.315 29.1804 125.209 29.4932 125.975 29.9013L124.778 32.411C123.23 31.6628 121.682 31.2888 120.134 31.2888C119.049 31.2888 118.243 31.4384 117.717 31.7376C117.206 32.0369 116.951 32.4314 116.951 32.921C116.951 33.4107 117.246 33.778 117.837 34.0228C118.443 34.2541 119.36 34.4853 120.589 34.7166C121.866 34.975 122.911 35.2334 123.725 35.4919C124.538 35.7503 125.233 36.1584 125.807 36.7161C126.397 37.2738 126.693 38.0287 126.693 38.9809C126.693 39.797 126.421 40.5452 125.879 41.2253C125.352 41.8918 124.554 42.4223 123.485 42.8168C122.416 43.2112 121.116 43.4085 119.584 43.4085ZM29.4843 43.1636L34.9655 28.8811H31.2555L27.354 39.0013L23.5244 28.8811H19.934L15.9847 38.9197L12.2029 28.8811H8.18176L13.6869 43.1636H17.8277L21.6335 33.4923L25.3195 43.1636H29.4843ZM50.1031 43.1636V40.5112H40.9837V37.2058H48.7627V34.6349H40.9837V31.5336H49.792V28.8811H37.1301V43.1636H50.1031ZM65.4911 35.7367C66.4485 35.9952 67.1985 36.4305 67.7411 37.0426C68.2836 37.6411 68.5549 38.3824 68.5549 39.2665C68.5549 40.518 67.9804 41.4837 66.8315 42.1638C65.6986 42.8304 64.0391 43.1636 61.853 43.1636H53.1883V28.8811H61.3743C63.4167 28.8811 64.9805 29.2144 66.0656 29.8809C67.1666 30.5474 67.7171 31.452 67.7171 32.5946C67.7171 33.2883 67.5177 33.9072 67.1187 34.4513C66.7358 34.9954 66.1932 35.4239 65.4911 35.7367ZM57.0419 31.3704V34.737H60.8955C61.853 34.737 62.579 34.5941 63.0737 34.3085C63.5683 34.0228 63.8157 33.6012 63.8157 33.0435C63.8157 32.4858 63.5683 32.0709 63.0737 31.7988C62.579 31.5132 61.853 31.3704 60.8955 31.3704H57.0419ZM61.5657 40.6744C62.587 40.6744 63.3529 40.5316 63.8635 40.2459C64.3901 39.9603 64.6534 39.5182 64.6534 38.9197C64.6534 37.7363 63.6242 37.1446 61.5657 37.1446H57.0419V40.6744H61.5657ZM81.2378 43.1636H69.2701V44.9999H81.2378V43.1636ZM86.6951 31.5744H81.3336V28.8811H95.9342V31.5744H90.5726V43.1636H86.6951V31.5744ZM110.993 43.1636V40.5112H101.874V37.2058H109.653V34.6349H101.874V31.5336H110.682V28.8811H98.0205V43.1636H110.993ZM127.218 31.5744H132.579V43.1636H136.457V31.5744H141.818V28.8811H127.218V31.5744Z" fill="#777777"/>
</svg>
