<svg width="150" height="63" viewBox="0 0 150 63" fill="none" xmlns="http://www.w3.org/2000/svg">
<path fill-rule="evenodd" clip-rule="evenodd" d="M0 15C0 6.71573 6.71573 0 15 0H60C67.353 0 73.4702 5.29066 74.7527 12.2729H135C143.284 12.2729 150 18.9886 150 27.2729V47.7274C150 56.0117 143.284 62.7274 135 62.7274H45L44.9351 62.7273H15C6.71572 62.7273 0 56.0116 0 47.7273V15ZM119.584 43.4085C118.259 43.4085 116.975 43.2589 115.73 42.9597C114.502 42.6468 113.512 42.2455 112.762 41.7558L114.079 39.2666C114.797 39.7155 115.65 40.076 116.64 40.348C117.629 40.62 118.618 40.7561 119.608 40.7561C120.709 40.7561 121.523 40.62 122.049 40.348C122.576 40.0624 122.839 39.6883 122.839 39.2258C122.839 38.8857 122.679 38.6069 122.36 38.3893C122.057 38.158 121.658 37.9744 121.164 37.8384C120.685 37.7023 120.031 37.5527 119.201 37.3895C117.924 37.131 116.879 36.8726 116.065 36.6142C115.252 36.3557 114.549 35.9408 113.959 35.3695C113.385 34.7982 113.097 34.0365 113.097 33.0843C113.097 32.2546 113.361 31.5065 113.887 30.84C114.414 30.1598 115.204 29.6225 116.257 29.2281C117.326 28.8336 118.626 28.6364 120.158 28.6364C121.227 28.6364 122.273 28.7452 123.294 28.9628C124.315 29.1805 125.209 29.4933 125.975 29.9014L124.778 32.411C123.23 31.6629 121.682 31.2888 120.134 31.2888C119.049 31.2888 118.243 31.4385 117.717 31.7377C117.206 32.037 116.951 32.4314 116.951 32.9211C116.951 33.4108 117.246 33.7781 117.837 34.0229C118.443 34.2541 119.36 34.4854 120.589 34.7166C121.866 34.9751 122.911 35.2335 123.725 35.492C124.538 35.7504 125.233 36.1585 125.807 36.7162C126.397 37.2739 126.693 38.0288 126.693 38.981C126.693 39.7971 126.421 40.5452 125.879 41.2254C125.352 41.8919 124.554 42.4224 123.485 42.8168C122.416 43.2113 121.116 43.4085 119.584 43.4085ZM29.4843 43.1637L34.9655 28.8812H31.2555L27.354 39.0014L23.5244 28.8812H19.9341L15.9847 38.9198L12.2029 28.8812H8.18177L13.6869 43.1637H17.8277L21.6335 33.4924L25.3195 43.1637H29.4843ZM50.1031 43.1637V40.5112H40.9837V37.2059H48.7627V34.635H40.9837V31.5337H49.792V28.8812H37.1301V43.1637H50.1031ZM65.4911 35.7368C66.4486 35.9952 67.1985 36.4305 67.7411 37.0426C68.2836 37.6411 68.5549 38.3825 68.5549 39.2666C68.5549 40.518 67.9804 41.4838 66.8315 42.1639C65.6986 42.8304 64.0391 43.1637 61.853 43.1637H53.1884V28.8812H61.3743C63.4168 28.8812 64.9805 29.2145 66.0656 29.881C67.1666 30.5475 67.7171 31.4521 67.7171 32.5947C67.7171 33.2884 67.5177 33.9073 67.1188 34.4514C66.7358 34.9955 66.1933 35.4239 65.4911 35.7368ZM57.042 31.3704V34.737H60.8956C61.853 34.737 62.579 34.5942 63.0737 34.3086C63.5683 34.0229 63.8157 33.6012 63.8157 33.0435C63.8157 32.4858 63.5683 32.071 63.0737 31.7989C62.579 31.5133 61.853 31.3704 60.8956 31.3704H57.042ZM61.5657 40.6745C62.587 40.6745 63.3529 40.5316 63.8635 40.246C64.3901 39.9603 64.6534 39.5183 64.6534 38.9198C64.6534 37.7363 63.6242 37.1446 61.5657 37.1446H57.042V40.6745H61.5657ZM81.2378 43.1637H69.2701V45H81.2378V43.1637ZM86.6951 31.5745H81.3336V28.8812H95.9342V31.5745H90.5726V43.1637H86.6951V31.5745ZM110.993 43.1637V40.5112H101.874V37.2059H109.653V34.635H101.874V31.5337H110.682V28.8812H98.0205V43.1637H110.993ZM127.218 31.5745H132.579V43.1637H136.457V31.5745H141.818V28.8812H127.218V31.5745Z" fill="url(#paint0_linear_85_2)"/>
<defs>
<linearGradient id="paint0_linear_85_2" x1="1.11759e-06" y1="31.3637" x2="150" y2="31.3637" gradientUnits="userSpaceOnUse">
<stop stop-color="#0462AC"/>
<stop offset="0.515625" stop-color="#3880AC"/>
<stop offset="1" stop-color="#54BCDC"/>
</linearGradient>
</defs>
</svg>
