<svg width="60" height="60" viewBox="0 0 60 60" fill="none" xmlns="http://www.w3.org/2000/svg">
<path fill-rule="evenodd" clip-rule="evenodd" d="M60 29.855C60 46.3434 46.5685 59.71 30 59.71C13.4315 59.71 0 46.3434 0 29.855C0 13.3665 13.4315 0 30 0C46.5685 0 60 13.3665 60 29.855ZM25.4174 46.2251C25.422 46.7142 25.4254 47.0798 25.4254 47.2872C25.4254 47.7856 25.0877 48.3673 24.1651 48.195C16.829 45.7041 11.5397 38.6429 11.5386 30.3212C11.5386 19.9168 19.8052 11.4829 29.9996 11.4829C40.1951 11.4829 48.4617 19.9168 48.4617 30.3212C48.4617 38.6406 43.1769 45.6971 35.8476 48.1927C34.9103 48.3766 34.5771 47.7914 34.5771 47.2872C34.5771 47.0827 34.5797 46.7231 34.5832 46.242C34.5903 45.2705 34.6009 43.8037 34.6009 42.1191C34.6009 40.3613 34.0116 39.2118 33.3474 38.6302C37.4603 38.1641 41.7772 36.5717 41.7772 29.3348C41.7772 27.2786 41.0632 25.5972 39.88 24.28C40.0704 23.8024 40.7039 21.8873 39.6964 19.2946C39.6964 19.2946 38.1483 18.7881 34.6247 21.2259C33.1491 20.8084 31.5704 20.5979 30.003 20.591C28.4321 20.5979 26.8523 20.8084 25.3801 21.2259C21.8542 18.7881 20.3038 19.2946 20.3038 19.2946C19.2986 21.8885 19.9332 23.8035 20.1225 24.28C18.9416 25.5972 18.2219 27.2786 18.2219 29.3348C18.2219 36.5532 22.532 38.1699 26.6313 38.6452C26.1043 39.1159 25.6271 39.9462 25.4594 41.1639C24.4065 41.6461 21.733 42.4765 20.0862 39.5981C20.0862 39.5981 19.1116 37.7894 17.2585 37.6564C17.2585 37.6564 15.4554 37.6322 17.1316 38.8013C17.1316 38.8013 18.342 39.3807 19.1818 41.5571C19.1818 41.5571 20.2653 45.2207 25.4005 44.0827C25.4053 44.9267 25.4121 45.6587 25.4174 46.2251Z" fill="#777777"/>
</svg>
