<svg width="60" height="60" viewBox="0 0 60 60" fill="none" xmlns="http://www.w3.org/2000/svg">
<path d="M39.375 16.7935H20.625C19.6304 16.7935 18.6766 17.1866 17.9734 17.8865C17.2701 18.5864 16.875 19.5356 16.875 20.5253V39.1846C16.875 40.1744 17.2701 41.1236 17.9734 41.8235C18.6766 42.5233 19.6304 42.9165 20.625 42.9165H39.375C40.3696 42.9165 41.3234 42.5233 42.0266 41.8235C42.7299 41.1236 43.125 40.1744 43.125 39.1846V20.5253C43.125 19.5356 42.7299 18.5864 42.0266 17.8865C41.3234 17.1866 40.3696 16.7935 39.375 16.7935ZM30 37.3187C28.5166 37.3187 27.0666 36.881 25.8332 36.0608C24.5999 35.2407 23.6386 34.075 23.0709 32.7112C22.5032 31.3474 22.3547 29.8467 22.6441 28.3989C22.9335 26.9511 23.6478 25.6211 24.6967 24.5773C25.7456 23.5335 27.082 22.8227 28.5368 22.5347C29.9917 22.2467 31.4997 22.3945 32.8701 22.9594C34.2406 23.5243 35.4119 24.481 36.236 25.7084C37.0601 26.9358 37.5 28.3788 37.5 29.855C37.5 31.8345 36.7098 33.7329 35.3033 35.1326C33.8968 36.5324 31.9891 37.3187 30 37.3187ZM38.4375 23.7907C37.9739 23.7907 37.5208 23.6539 37.1354 23.3976C36.75 23.1413 36.4495 22.7771 36.2722 22.3509C36.0948 21.9247 36.0484 21.4557 36.1388 21.0033C36.2292 20.5508 36.4524 20.1352 36.7802 19.809C37.108 19.4828 37.5256 19.2607 37.9803 19.1707C38.4349 19.0807 38.9061 19.1269 39.3344 19.3034C39.7627 19.48 40.1287 19.7789 40.3863 20.1625C40.6438 20.546 40.7812 20.997 40.7812 21.4583C40.7812 22.0769 40.5343 22.6701 40.0948 23.1076C39.6552 23.545 39.0591 23.7907 38.4375 23.7907Z" fill="#777777"/>
<path d="M30 33.5867C32.0711 33.5867 33.75 31.9159 33.75 29.8549C33.75 27.7938 32.0711 26.123 30 26.123C27.9289 26.123 26.25 27.7938 26.25 29.8549C26.25 31.9159 27.9289 33.5867 30 33.5867Z" fill="#777777"/>
<path d="M30 0C24.0666 0 18.2664 1.75096 13.3329 5.03147C8.39943 8.31198 4.55426 12.9747 2.28363 18.43C0.0129984 23.8853 -0.581101 29.8881 0.576455 35.6794C1.73401 41.4707 4.59123 46.7903 8.78681 50.9656C12.9824 55.1409 18.3279 57.9843 24.1473 59.1363C29.9667 60.2882 35.9987 59.697 41.4805 57.4374C46.9623 55.1777 51.6476 51.3511 54.9441 46.4415C58.2405 41.5319 60 35.7597 60 29.855C60 21.9369 56.8393 14.3432 51.2132 8.74432C45.5871 3.14543 37.9565 0 30 0V0ZM46.875 39.1847C46.875 41.1642 46.0848 43.0626 44.6783 44.4623C43.2718 45.862 41.3641 46.6484 39.375 46.6484H20.625C18.6359 46.6484 16.7282 45.862 15.3217 44.4623C13.9152 43.0626 13.125 41.1642 13.125 39.1847V20.5253C13.125 18.5458 13.9152 16.6474 15.3217 15.2476C16.7282 13.8479 18.6359 13.0616 20.625 13.0616H39.375C41.3641 13.0616 43.2718 13.8479 44.6783 15.2476C46.0848 16.6474 46.875 18.5458 46.875 20.5253V39.1847Z" fill="#777777"/>
</svg>
