<svg width="60" height="60" viewBox="0 0 60 60" fill="none" xmlns="http://www.w3.org/2000/svg">
<path d="M30 0C13.4314 0 0 13.3665 0 29.855C0 46.3434 13.4314 59.71 30 59.71C46.5686 59.71 60 46.3434 60 29.855C60 13.3665 46.5686 0 30 0ZM45.98 39.9893H42.1732C41.7609 39.9898 41.3538 39.8978 40.9821 39.7201C40.6105 39.5424 40.2839 39.2837 40.0266 38.9631C38.8849 37.5367 36.6359 35.0075 34.2744 33.9212C34.1376 33.8575 33.9869 33.8291 33.8362 33.8387C33.6855 33.8483 33.5397 33.8955 33.4122 33.9761C33.2847 34.0566 33.1796 34.1678 33.1067 34.2995C33.0339 34.4311 32.9955 34.5789 32.9952 34.7292V38.476C32.9952 38.6747 32.9559 38.8715 32.8796 39.0551C32.8032 39.2387 32.6912 39.4055 32.55 39.5461C32.4088 39.6866 32.2412 39.7981 32.0567 39.8741C31.8722 39.9502 31.6745 39.9893 31.4748 39.9893H29.7145C27.4254 39.9893 22.4958 38.6026 18.5678 32.9082C15.2209 28.0568 13.729 24.2969 12.859 21.2485C12.8084 21.0698 12.8001 20.8819 12.8348 20.6995C12.8695 20.5171 12.9461 20.3452 13.0588 20.1972C13.1714 20.0493 13.317 19.9294 13.4841 19.8468C13.6512 19.7643 13.8352 19.7214 14.0217 19.7215H17.8727C18.2569 19.7212 18.631 19.8443 18.9393 20.0725C19.2475 20.3007 19.4735 20.6219 19.5837 20.9882C20.2998 23.3718 22.1546 28.5137 25.4333 31.0743C25.5333 31.1527 25.6534 31.2015 25.78 31.2152C25.9065 31.2289 26.0344 31.2068 26.1489 31.1516C26.2635 31.0964 26.3601 31.0102 26.4278 30.9029C26.4954 30.7956 26.5314 30.6715 26.5315 30.5448V24.5428C26.5315 23.3566 26.0149 22.1699 25.2087 21.2424C25.0925 21.1094 25.0172 20.9459 24.9918 20.7715C24.9664 20.5971 24.992 20.4191 25.0654 20.2587C25.1389 20.0983 25.2571 19.9623 25.4061 19.867C25.555 19.7717 25.7284 19.721 25.9055 19.721H31.8429C32.1486 19.721 32.4419 19.8418 32.6581 20.057C32.8743 20.2721 32.9958 20.5639 32.9958 20.8682V28.9529C32.9958 29.07 33.0282 29.1847 33.0894 29.2847C33.1506 29.3846 33.2382 29.4659 33.3427 29.5195C33.4473 29.5732 33.5646 29.5972 33.6819 29.5889C33.7992 29.5806 33.912 29.5404 34.0078 29.4726C35.0977 28.7005 36.0311 27.56 36.8896 26.278C37.97 24.6653 39.2885 21.9996 39.9499 20.6161C40.078 20.3481 40.2797 20.1217 40.5318 19.9632C40.7839 19.8047 41.076 19.7206 41.3742 19.7206H45.5742C45.7496 19.7205 45.9221 19.765 46.0753 19.8499C46.2286 19.9347 46.3576 20.0571 46.45 20.2055C46.5424 20.3538 46.5952 20.5232 46.6034 20.6975C46.6116 20.8719 46.5749 21.0454 46.4968 21.2017C45.437 23.3172 43.3727 27.1981 41.4302 29.475C41.1522 29.8025 41.016 30.2263 41.0517 30.6536C41.0874 31.0808 41.2919 31.4765 41.6204 31.7538C42.8866 32.8304 44.8634 34.8209 46.9945 38.1364C47.1121 38.3178 47.1784 38.5275 47.1864 38.7432C47.1944 38.959 47.1438 39.1729 47.04 39.3625C46.9362 39.5521 46.783 39.7104 46.5965 39.8207C46.4099 39.931 46.197 39.9893 45.98 39.9893Z" fill="#777777"/>
</svg>
